<svg width="23" height="16" fill="none" xmlns="http://www.w3.org/2000/svg"><circle cx="11.5" cy="8" r="3" stroke="#B39445" stroke-width="2"/><path d="M20.5 8l.83.558.375-.558-.375-.557L20.5 8zm0 0l.83.558v.001l-.002.002-.003.005-.012.017a7.41 7.41 0 01-.188.265 20.644 20.644 0 01-2.583 2.888C16.858 13.286 14.37 15 11.5 15s-5.359-1.715-7.041-3.264a20.648 20.648 0 01-2.584-2.888 12.317 12.317 0 01-.188-.265l-.012-.017-.003-.005-.001-.002h0C1.67 8.557 1.67 8.557 2.5 8m18 0l.83-.558h0l-.002-.002-.003-.005-.012-.017a7.41 7.41 0 00-.188-.266 20.64 20.64 0 00-2.583-2.888C16.858 2.716 14.37 1 11.5 1S6.141 2.715 4.459 4.265a20.645 20.645 0 00-2.584 2.887 12.317 12.317 0 00-.188.266l-.012.017-.003.005-.001.002h0L2.5 8m0 0l-.83.558L1.295 8l.375-.557L2.5 8z" stroke="#B39445" stroke-width="2"/></svg>